<?xml version="1.0" encoding="utf-8"?>
<!-- Generator: Adobe Illustrator 24.2.3, SVG Export Plug-In . SVG Version: 6.00 Build 0)  -->
<svg version="1.1" id="Ebene_1" xmlns="http://www.w3.org/2000/svg" xmlns:xlink="http://www.w3.org/1999/xlink" x="0px" y="0px"
	 viewBox="0 0 52 52" style="enable-background:new 0 0 52 52;" xml:space="preserve">
<style type="text/css">
	.st0{fill:none;stroke:#C8F0FF;}
</style>
<g>
	<line class="st0" x1="26" y1="1" x2="26" y2="12.2"/>
	<line class="st0" x1="26" y1="39.8" x2="26" y2="51"/>
	<line class="st0" x1="51" y1="26" x2="39.8" y2="26"/>
	<line class="st0" x1="12.2" y1="26" x2="1" y2="26"/>
	<line class="st0" x1="43.7" y1="8.3" x2="35.7" y2="16.3"/>
	<line class="st0" x1="16.3" y1="35.7" x2="8.3" y2="43.7"/>
	<line class="st0" x1="8.3" y1="8.3" x2="16.3" y2="16.3"/>
	<line class="st0" x1="35.7" y1="35.7" x2="43.7" y2="43.7"/>
	<line class="st0" x1="16.4" y1="2.9" x2="18.6" y2="8.1"/>
	<line class="st0" x1="33.4" y1="43.9" x2="35.6" y2="49.1"/>
	<line class="st0" x1="49.1" y1="16.4" x2="43.9" y2="18.6"/>
	<line class="st0" x1="8.1" y1="33.4" x2="2.9" y2="35.6"/>
	<line class="st0" x1="35.6" y1="2.9" x2="33.4" y2="8.1"/>
	<line class="st0" x1="18.6" y1="43.9" x2="16.4" y2="49.1"/>
	<line class="st0" x1="49.1" y1="35.6" x2="43.9" y2="33.4"/>
	<line class="st0" x1="8.1" y1="18.6" x2="2.9" y2="16.4"/>
	<line class="st0" x1="21.1" y1="1.5" x2="21.7" y2="4.2"/>
	<line class="st0" x1="4.2" y1="30.3" x2="1.5" y2="30.9"/>
	<line class="st0" x1="50.5" y1="21.1" x2="47.8" y2="21.7"/>
	<line class="st0" x1="30.3" y1="47.8" x2="30.9" y2="50.5"/>
	<line class="st0" x1="39.9" y1="5.2" x2="38.3" y2="7.5"/>
	<line class="st0" x1="7.5" y1="13.7" x2="5.2" y2="12.1"/>
	<line class="st0" x1="46.8" y1="39.9" x2="44.5" y2="38.3"/>
	<line class="st0" x1="13.7" y1="44.5" x2="12.1" y2="46.8"/>
	<line class="st0" x1="30.9" y1="1.5" x2="30.3" y2="4.2"/>
	<line class="st0" x1="4.2" y1="21.7" x2="1.5" y2="21.1"/>
	<line class="st0" x1="50.5" y1="30.9" x2="47.8" y2="30.3"/>
	<line class="st0" x1="21.7" y1="47.8" x2="21.1" y2="50.5"/>
	<line class="st0" x1="46.8" y1="12.1" x2="44.5" y2="13.7"/>
	<line class="st0" x1="13.7" y1="7.5" x2="12.1" y2="5.2"/>
	<line class="st0" x1="39.9" y1="46.8" x2="38.3" y2="44.5"/>
	<line class="st0" x1="7.5" y1="38.3" x2="5.2" y2="39.9"/>
</g>
</svg>
