<?xml version="1.0" encoding="utf-8"?>
<!-- Generator: Adobe Illustrator 24.2.3, SVG Export Plug-In . SVG Version: 6.00 Build 0)  -->
<svg version="1.1" id="Ebene_1" xmlns="http://www.w3.org/2000/svg" xmlns:xlink="http://www.w3.org/1999/xlink" x="0px" y="0px"
	 viewBox="0 0 297.6 297.6" style="enable-background:new 0 0 297.6 297.6;" xml:space="preserve">
<style type="text/css">
	.st0{fill:none;stroke:#C8F0FF;stroke-miterlimit:10;stroke-dasharray:10,10;}
	.st1{fill:#C8F0FF;}
</style>
<circle class="st0" cx="148.8" cy="148.8" r="146.3"/>
<g id="_x32_oLOe9.tif">
	<g>
		<path class="st1" d="M108.8,91.2c2,0,4,0,6,0c0,1,0,1.9,0,3c2,0.1,4,0,6.1,0.1c0,1,0,2,0,3c1,0,2,0,3,0c0,1,0,2,0,3c2,0,4,0,6,0
			c0.1,0.5,0.1,1,0.1,1.5c0,0.5,0,1,0,1.5c2,0,4,0,6,0c0,1,0,2,0,3c2.1,0,4,0,6.1,0c0,1,0,2,0,3c1,0,2,0,3,0c0,1,0,2,0,3
			c2,0,4,0,6.1,0c0,1,0,2,0,3c2,0,4,0,6.1,0c0,1,0,2,0,3c1,0,2,0,3,0c0,1,0,2,0,3c2,0,4,0,6,0c0,1,0,2,0,3c2.1,0,4,0,6.1,0
			c0,1,0,2,0,3c2.1,0,4,0,6,0c0,1,0,2,0,3c0.5,0.1,1,0.1,1.5,0.1c0.5,0,1,0,1.5,0c0,1,0,2,0,3c2,0,4,0,6.1,0c0,1,0,2,0,3
			c2,0,4,0,6.1,0c0,1,0,2,0,3c1,0,2,0,3,0c0,0.5,0,1,0,1.5c0,0.5,0,1,0,1.5c2,0,4,0,6,0c0,1,0,2,0,3c2.1,0,4,0,6,0c0,1,0,2,0,3
			c-1,0-1.9,0-2.9,0c0,1,0,2,0,3c-2,0-4,0-6.1,0c0,1,0,2,0,3c-1,0-2,0-3,0c0,1,0,2,0,3c-2,0-4,0-6.1,0c0,0.5,0,1,0,1.5
			c0,0.5,0,1,0,1.5c-2,0-4,0-6,0c0,1,0,2,0,3c-2.1,0-4,0-6.1,0c0,1,0,2,0,3c-1,0-2,0-3,0c0,1,0,2,0,3c-2,0.1-4,0-6.1,0.1
			c0,1,0,1.9,0,3c-2,0-4,0-6.1,0c0,1,0,2,0,3c-1,0-2,0-3,0c-0.1,0.5-0.1,1-0.1,1.5c0,0.5,0,1,0,1.5c-2,0-4,0-6,0c0,1,0,2,0,3
			c-2.1,0-4,0-6.1,0c0,1,0,2,0,3c-1,0-2,0-3,0c0,1,0,2,0,2.9c-0.1,0.1-0.1,0.1-0.1,0.1c0,0-0.1,0-0.1,0c-1.9,0-3.9,0-5.8,0
			c0,1,0,2,0,3c-2,0-4,0-6.1,0c0,1,0,2,0,3c-2,0-4,0-6.1,0c0,1,0,2,0,3c-2,0-4,0-6,0c0,0.5,0,1,0,1.5c0,0.5,0,1,0,1.5c-1,0-2,0-3,0
			c0,1,0,2,0,3c-2.1,0-4,0-6.1,0c0,1,0,2,0,3c-1,0-2,0-3,0C108.8,168,108.8,129.6,108.8,91.2z"/>
	</g>
</g>
</svg>
