<?xml version="1.0" encoding="utf-8"?>
<!-- Generator: Adobe Illustrator 24.2.3, SVG Export Plug-In . SVG Version: 6.00 Build 0)  -->
<svg version="1.1" id="Ebene_1" xmlns="http://www.w3.org/2000/svg" xmlns:xlink="http://www.w3.org/1999/xlink" x="0px" y="0px"
	 viewBox="0 0 1417.3 1133.9" style="enable-background:new 0 0 1417.3 1133.9;" xml:space="preserve">
<style type="text/css">
	.st0{fill:none;stroke:#C8F0FF;stroke-dasharray:3.786,3.786;}
	.st1{fill:none;stroke:#C8F0FF;stroke-dasharray:4.561,4.561;}
	.st2{fill:none;stroke:#C8F0FF;stroke-dasharray:5.551,5.551;}
	.st3{fill:none;stroke:#C8F0FF;stroke-dasharray:5.108,5.108;}
	.st4{fill:none;stroke:#C8F0FF;stroke-dasharray:4.27,4.27;}
	.st5{fill:none;stroke:#C8F0FF;stroke-dasharray:5.953,5.953;}
	.st6{fill:none;stroke:#C8F0FF;stroke-dasharray:3.856,3.856;}
	.st7{fill:none;stroke:#C8F0FF;stroke-dasharray:4.96,4.96;}
	.st8{fill:none;stroke:#C8F0FF;stroke-dasharray:4.684,4.684;}
	.st9{fill:none;stroke:#C8F0FF;stroke-dasharray:4.709,4.709;}
	.st10{fill:none;stroke:#C8F0FF;stroke-dasharray:4.503,4.503;}
	.st11{fill:none;stroke:#C8F0FF;stroke-dasharray:4.963,4.963;}
	.st12{fill:none;stroke:#C8F0FF;stroke-dasharray:5.218,5.218;}
	.st13{fill:none;stroke:#C8F0FF;stroke-dasharray:4.409,4.409;}
	.st14{fill:none;stroke:#C8F0FF;stroke-dasharray:5.374,5.374;}
	.st15{fill:none;stroke:#C8F0FF;stroke-dasharray:3.959,3.959;}
	.st16{fill:none;stroke:#C8F0FF;stroke-dasharray:4.221,4.221;}
	.st17{fill:none;stroke:#C8F0FF;stroke-dasharray:4.517,4.517;}
	.st18{fill:none;stroke:#C8F0FF;stroke-dasharray:5.122,5.122;}
	.st19{fill:none;stroke:#C8F0FF;stroke-dasharray:4.155,4.155;}
	.st20{fill:none;stroke:#C8F0FF;stroke-dasharray:5.484,5.484;}
	.st21{fill:none;stroke:#C8F0FF;stroke-dasharray:5.564,5.564;}
	.st22{fill:none;stroke:#C8F0FF;stroke-dasharray:5.535,5.535;}
	.st23{fill:none;stroke:#C8F0FF;stroke-dasharray:5.972,5.972;}
	.st24{fill:none;stroke:#C8F0FF;stroke-dasharray:4.397,4.397;}
	.st25{fill:none;stroke:#C8F0FF;stroke-dasharray:5.987,5.987;}
	.st26{fill:none;stroke:#C8F0FF;stroke-dasharray:5.396,5.396;}
	.st27{fill:none;stroke:#C8F0FF;stroke-dasharray:5.947,5.947;}
	.st28{fill:none;stroke:#C8F0FF;stroke-dasharray:4.404,4.404;}
	.st29{fill:none;stroke:#C8F0FF;stroke-dasharray:4.744,4.744;}
	.st30{fill:none;stroke:#C8F0FF;stroke-dasharray:4.132,4.132;}
	.st31{fill:none;stroke:#C8F0FF;stroke-dasharray:3.855,3.855;}
	.st32{fill:none;stroke:#C8F0FF;stroke-dasharray:4.225,4.225;}
	.st33{fill:none;stroke:#C8F0FF;stroke-dasharray:4.624,4.624;}
	.st34{fill:none;stroke:#C8F0FF;stroke-dasharray:5.42,5.42;}
	.st35{fill:none;stroke:#C8F0FF;stroke-dasharray:4.74,4.74;}
	.st36{fill:none;stroke:#C8F0FF;}
	.st37{fill:none;stroke:#C8F0FF;stroke-linecap:round;stroke-linejoin:round;stroke-dasharray:0,2.365;}
	.st38{fill:none;stroke:#C8F0FF;stroke-linecap:round;stroke-linejoin:round;stroke-dasharray:0,2.581;}
	.st39{fill:none;stroke:#C8F0FF;stroke-linecap:round;stroke-linejoin:round;stroke-dasharray:0,2.107;}
	.st40{fill:none;stroke:#C8F0FF;stroke-linecap:round;stroke-linejoin:round;stroke-dasharray:0,2.352;}
	.st41{fill:none;stroke:#C8F0FF;stroke-linecap:round;stroke-linejoin:round;stroke-dasharray:0,2.693;}
	.st42{fill:none;stroke:#C8F0FF;stroke-linecap:round;stroke-linejoin:round;stroke-dasharray:0,2.153;}
	.st43{fill:none;stroke:#C8F0FF;stroke-linecap:round;stroke-linejoin:round;stroke-dasharray:0,2.391;}
	.st44{fill:none;stroke:#C8F0FF;stroke-linecap:round;stroke-linejoin:round;stroke-dasharray:0,2.156;}
	.st45{fill:none;stroke:#C8F0FF;stroke-linecap:round;stroke-linejoin:round;stroke-dasharray:0,2.084;}
	.st46{fill:none;stroke:#C8F0FF;stroke-linecap:round;stroke-linejoin:round;stroke-dasharray:0,2.154;}
	.st47{fill:none;stroke:#C8F0FF;stroke-linecap:round;stroke-linejoin:round;stroke-dasharray:0,2.303;}
	.st48{fill:none;stroke:#C8F0FF;stroke-linecap:round;stroke-linejoin:round;stroke-dasharray:0,2.146;}
	.st49{fill:none;stroke:#C8F0FF;stroke-linecap:round;stroke-linejoin:round;stroke-dasharray:0,2.48;}
	.st50{fill:none;stroke:#C8F0FF;stroke-linecap:round;stroke-linejoin:round;stroke-dasharray:0,2.349;}
	.st51{fill:none;stroke:#C8F0FF;stroke-linecap:round;stroke-linejoin:round;stroke-dasharray:0,2.72;}
	.st52{fill:none;stroke:#C8F0FF;stroke-linecap:round;stroke-linejoin:round;stroke-dasharray:0,2.174;}
	.st53{fill:none;stroke:#C8F0FF;stroke-linecap:round;stroke-linejoin:round;stroke-dasharray:0,2.214;}
	.st54{fill:none;stroke:#C8F0FF;stroke-linecap:round;stroke-linejoin:round;stroke-dasharray:0,3.169;}
	.st55{fill:none;stroke:#C8F0FF;stroke-linecap:round;stroke-linejoin:round;stroke-dasharray:0,2.269;}
	.st56{fill:none;stroke:#C8F0FF;stroke-linecap:round;stroke-linejoin:round;stroke-dasharray:0,1.772;}
	.st57{fill:none;stroke:#C8F0FF;stroke-linecap:round;stroke-linejoin:round;}
	.st58{fill:none;stroke:#C8F0FF;stroke-dasharray:10.13,10.13;}
	.st59{fill:none;stroke:#C8F0FF;stroke-dasharray:9.259,9.259;}
	.st60{fill:none;stroke:#C8F0FF;stroke-dasharray:10.088,10.088;}
</style>
<line class="st0" x1="866.5" y1="791.3" x2="867.9" y2="785.8"/>
<line class="st1" x1="875.1" y1="779.5" x2="881.4" y2="777"/>
<line class="st2" x1="889.7" y1="768" x2="893.7" y2="760.7"/>
<line class="st3" x1="903.3" y1="752.5" x2="919.4" y2="744.6"/>
<line class="st4" x1="919.8" y1="737.5" x2="915.7" y2="732.6"/>
<line class="st5" x1="917.3" y1="721.5" x2="921.6" y2="713.7"/>
<line class="st6" x1="918.8" y1="709.4" x2="913.1" y2="710.2"/>
<line class="st7" x1="909.8" y1="703.4" x2="910.4" y2="695.9"/>
<line class="st8" x1="907.3" y1="684.9" x2="903.8" y2="678.8"/>
<line class="st9" x1="902.1" y1="667.6" x2="902.7" y2="660.6"/>
<line class="st10" x1="906.9" y1="650.3" x2="925.5" y2="622.1"/>
<line class="st11" x1="935.4" y1="617.2" x2="942.7" y2="615.9"/>
<line class="st12" x1="951.7" y1="608.4" x2="961.2" y2="592.9"/>
<line class="st13" x1="957.3" y1="570.5" x2="950.4" y2="556.7"/>
<line class="st14" x1="943.9" y1="537.1" x2="938.3" y2="531.3"/>
<line class="st15" x1="890.5" y1="551.4" x2="884.6" y2="552.2"/>
<line class="st16" x1="806.3" y1="527.6" x2="808.9" y2="521.9"/>
<line class="st17" x1="804.1" y1="516.3" x2="797.6" y2="514.5"/>
<line class="st18" x1="776.8" y1="508.8" x2="771" y2="503.7"/>
<line class="st19" x1="781.5" y1="489.5" x2="786.9" y2="486.4"/>
<line class="st20" x1="796.7" y1="470.8" x2="811.6" y2="458.7"/>
<line class="st21" x1="823.4" y1="451.5" x2="830.8" y2="447.9"/>
<line class="st22" x1="843.6" y1="442.4" x2="872" y2="431.5"/>
<line class="st23" x1="882.3" y1="422.1" x2="887.5" y2="414.8"/>
<line class="st24" x1="884.6" y1="407.9" x2="870" y2="403.1"/>
<line class="st25" x1="856.5" y1="386.4" x2="851.2" y2="379.1"/>
<line class="st26" x1="820.3" y1="351.1" x2="813.4" y2="347"/>
<line class="st27" x1="801.9" y1="327.2" x2="801" y2="318.4"/>
<line class="st28" x1="811.4" y1="302.4" x2="818" y2="303.1"/>
<line class="st29" x1="828.8" y1="300.4" x2="835.2" y2="297.3"/>
<line class="st30" x1="858.4" y1="270.3" x2="859.8" y2="264.3"/>
<line class="st31" x1="879.7" y1="210.6" x2="883.3" y2="206"/>
<line class="st32" x1="891.4" y1="200.4" x2="897.2" y2="197.9"/>
<line class="st33" x1="906.3" y1="191.6" x2="911.5" y2="187"/>
<line class="st34" x1="930" y1="168.5" x2="937.6" y2="165.8"/>
<line class="st35" x1="966.6" y1="139.7" x2="968.9" y2="132.9"/>
<path class="st36" d="M969.7,130.7l0.8-2.2 M963.1,147l1.2-0.6l0.8-2.2 M959,150.6l0.4-1.7l1.2-0.6 M956.2,157.7l1.6-2l0.4-1.7
	 M949.3,163.7l2.2-0.1l1.6-1.9 M940.2,164.9l2.5-0.9l2.2-0.1 M920.5,174.5l1.8-3.2l2.5-0.9 M913.2,185.5l1.7-1.5l1.8-3.2 M899.2,197
	l1.9-0.8l1.7-1.5 M884.4,204.4l1.2-1.5l1.9-0.8 M875.7,218.7l0.5-3.5l1.2-1.5 M872.4,230.8l1.9-1.5l0.5-3.5 M865.8,238.4l1-3.1
	l1.9-1.5 M862.8,249.5v-1.9l1-3.1 M862.3,256.6l0.5-1.2v-1.9 M860.3,262.2l0.5-2l0.5-1.2 M853.1,280.6l0.5-2l3.5-2.2l0.5-2
	 M845.5,291.8l2-1.2l-0.2-2.6l4.5-1.4l0.5-2 M837.4,296.3l2.1-1l2-1.2 M820.2,303.3l2.2,0.2l2.1-1 M803.6,302.3l1.2-0.5l2.2,0.2
	 M800.7,315.4l-0.3-3l1.6-4.1l-2-4.5l1.2-0.5 M804.3,338.1l-1.5-2l-0.3-3 M811,345.6l-2.3-1.4l-1.5-2 M829.8,357.7l-2.5-2.5
	l-2.3-1.4 M839.6,365.6l-2.3-0.5l-2.5-2.5 M846.8,368.9l-0.3-1.8l-2.3-0.5 M849.4,376.7l-1.8-2.4l-0.3-1.8 M862.8,395.7l-1-2
	l-1.8-2.4 M867.9,402.5l-2.1-0.7l-1-2 M889.2,412.4l1.7-2.4l-2.1-0.7 M874.6,430.5l2.6-1l1.7-2.4 M833.3,446.7l2.5-1.2l2.6-1
	 M813.7,457l2.1-1.7l2.5-1.2 M790.4,478.1V476l2.1-1.7 M788.8,485.4l1.8-1v-2.1 M773.9,494.5l2.2-2l1.8-1 M769.1,502l-1.9-1.7
	l2.2-1.9 M785.2,513.7l-2.7,0.1l-1.9-1.7 M795.4,513.9l-2.2-0.6l-2.7,0.1 M809.8,520l0.9-1.9l-2.2-0.6 M804.5,536.6l-0.8-3.2
	l0.9-1.9 M808,547.4l-0.9-1.1l-0.8-3.2 M813.6,551.2l-2.8-0.5l-0.9-1.1 M824,553.8l-2-1.1l-2.8-0.5 M831.4,557l-1.3,0.2l-2-1.1
	 M835.3,557.8v-1.4l-1.3,0.2 M839.7,562.4l-2.2-1.5l-2,1v-1.4 M849.1,566.4l-2.7,0.6l-2.2-1.5 M858.6,562.9l-1.5,1.6l-2.7,0.6
	 M864.5,558.2l-1.3-0.2l-1.5,1.6 M870,557.9l-1.5,0.9l-1.3-0.2 M876.1,554.5l-1.5,0.6l-1.5,0.9 M882.7,552.5l-2,0.3l-1.5,0.6
	 M897.3,552.2l-0.9-1.5l-2,0.3 M901.3,557.6l-1.4-0.8l-0.9-1.5 M906.6,558.9l-1,1l-1.4-0.8 M909.9,551.2l-0.6,1.1l0.4,3.7l-1,1
	 M914.9,545.9v1.9h-3.3l-0.6,1.1 M916.8,538.2l-2,1.8v1.9 M924.6,533.4l-1.9-0.7l-2,1.8 M930.3,533.7v1.7l-1.9-0.7 M936.4,529.4
	l-1.9-1.9l-4.2,1.2v1.7 M949.2,545.4l0.3-2.5l-1.9-1.9 M949.4,554.7l-1-2l0.3-2.5 M960.3,577.9v-1.5l-1-2 M961.2,584l-0.9-1.5V581
	 M962.6,590.6l1.4-2.2l-0.9-1.5 M945.2,615.5l2.4-0.4l1.4-2.2 M926.8,620.3l1.2-1.9l2.5-0.4 M902.9,658.3l0.2-2.3l1.2-1.9
	 M902.7,676.7l-1.2-2l0.2-2.3 M910.5,693.5l0.2-2.5l-1.2-2 M911.2,710.5l-1.9,0.3l0.2-2.5 M923.1,711.1l1.5-2.6l-1.9,0.3 M914.3,731
	l-1.4-1.6l1.5-2.6 M921.7,743.5l2.3-1.1l-1.4-1.6 M895.1,758.3l1.3-2.4l2.3-1.1 M883.5,776.1l2.1-0.8l1.3-2.4 M868.3,783.9l0.4-1.8
	l2.1-0.8 M862.3,797.5l3-0.7l0.4-1.8 M853.3,799.7l3-0.7"/>
<line class="st37" x1="949.5" y1="535.9" x2="948.9" y2="525.3"/>
<line class="st38" x1="949.9" y1="521.8" x2="951.5" y2="518.2"/>
<line class="st39" x1="950.4" y1="515.6" x2="949.6" y2="514.9"/>
<line class="st40" x1="948.2" y1="511.9" x2="946.1" y2="504"/>
<line class="st38" x1="946.8" y1="500.5" x2="948.3" y2="497"/>
<line class="st41" x1="951.6" y1="495.8" x2="952.9" y2="495.8"/>
<line class="st42" x1="956.3" y1="495.2" x2="967.7" y2="491.8"/>
<line class="st43" x1="968.2" y1="489.2" x2="967" y2="483.3"/>
<line class="st44" x1="964.8" y1="481.2" x2="958.2" y2="477.6"/>
<line class="st45" x1="956" y1="475.4" x2="955.4" y2="474.5"/>
<line class="st46" x1="952.7" y1="473.7" x2="945.1" y2="473.7"/>
<line class="st47" x1="942.7" y1="471.8" x2="935.6" y2="461.3"/>
<line class="st48" x1="935" y1="458.2" x2="935" y2="446.4"/>
<line class="st49" x1="933.1" y1="443.7" x2="930.2" y2="441.3"/>
<line class="st50" x1="927" y1="441.1" x2="916.8" y2="443.9"/>
<line class="st51" x1="913.1" y1="443.3" x2="911.9" y2="442.8"/>
<line class="st52" x1="910.6" y1="440.1" x2="910.6" y2="439"/>
<line class="st53" x1="909.2" y1="436.3" x2="902.8" y2="428.6"/>
<line class="st54" x1="903.5" y1="424.9" x2="902.8" y2="426.3"/>
<line class="st55" x1="901.7" y1="423.5" x2="897.3" y2="420"/>
<line class="st56" x1="894.6" y1="419.3" x2="893.8" y2="419.3"/>
<line class="st56" x1="891.8" y1="417.8" x2="891.3" y2="417.1"/>
<path class="st57" d="M890.8,416.4L890.8,416.4 M892.9,419.3L892.9,419.3 M896.4,419.3L896.4,419.3 M903.5,424.9L903.5,424.9
	 M902.1,427.8L902.1,427.8 M910.6,438L910.6,438 M910.6,442.3L910.6,442.3 M915.7,444.2L915.7,444.2 M929.3,440.5L929.3,440.5
	 M935,445.3L935,445.3 M935,460.4L935,460.4 M944,473.7L944,473.7 M954.8,473.7L954.8,473.7 M957.2,477.1L957.2,477.1 M966.7,482.2
	L966.7,482.2 M968.7,491.5L968.7,491.5 M954.2,495.8L954.2,495.8 M948.9,495.8L948.9,495.8 M945.7,502.9L945.7,502.9 M948.9,514.2
	L948.9,514.2 M952,517L952,517 M948.9,524.1L948.9,524.1 M949.6,538.3L949.6,538.3"/>
<line class="st58" x1="732.3" y1="37.6" x2="741.7" y2="498.4"/>
<line class="st59" x1="732.4" y1="518.7" x2="672.3" y2="582.9"/>
<line class="st60" x1="654.3" y1="599.3" x2="53.8" y2="1099.9"/>
<path class="st36" d="M49.9,1103.1l-3.9,3.2 M669.1,586.2l-3.2,3.4l-3.9,3.2 M741.8,503.5l0.1,5.1l-3.2,3.4 M732,22.4l0.1,5.1"/>
<polyline class="st36" points="794.4,481.6 822.7,464.1 840.3,446.5 857.3,432.3 862.4,418.8 862.6,386.4 836.9,359.7 855,317.2 
	848.8,300.8 840.9,300.7 842.6,296.8 "/>
<line class="st36" x1="714.5" y1="22.4" x2="714.5" y2="36.6"/>
<line class="st36" x1="538.4" y1="22.5" x2="536.4" y2="36.5"/>
<line class="st36" x1="345.1" y1="22.8" x2="340.3" y2="36.1"/>
</svg>
